Coordinates
version=1
nRows=16
nColumns=63
inDegrees=yes

Units are S.I. units (second, meters, Newtons, ...)
If the header above contains a line with 'inDegrees', this indicates whether rotational values are in degrees (yes) or radians (no).

endheader
time	pelvis_tilt	pelvis_list	pelvis_rotation	pelvis_tx	pelvis_ty	pelvis_tz	hip_flexion_r	hip_adduction_r	hip_rotation_r	knee_angle_r	knee_angle_r_beta	ankle_angle_r	subtalar_angle_r	mtp_angle_r	hip_flexion_l	hip_adduction_l	hip_rotation_l	knee_angle_l	knee_angle_l_beta	ankle_angle_l	subtalar_angle_l	mtp_angle_l	L5_S1_Flex_Ext	L5_S1_Lat_Bending	L5_S1_axial_rotation	L4_L5_Flex_Ext	L4_L5_Lat_Bending	L4_L5_axial_rotation	L3_L4_Flex_Ext	L3_L4_Lat_Bending	L3_L4_axial_rotation	L2_L3_Flex_Ext	L2_L3_Lat_Bending	L2_L3_axial_rotation	L1_L2_Flex_Ext	L1_L2_Lat_Bending	L1_L2_axial_rotation	L1_T12_Flex_Ext	L1_T12_Lat_Bending	L1_T12_axial_rotation	Abs_r3	Abs_r2	Abs_r1	Abs_t1	Abs_t2	neck_flexion	neck_bending	neck_rotation	arm_flex_r	arm_add_r	arm_rot_r	elbow_flex_r	pro_sup_r	wrist_flex_r	wrist_dev_r	arm_flex_l	arm_add_l	arm_rot_l	elbow_flex_l	pro_sup_l	wrist_flex_l	wrist_dev_l
0.000000	0.843372	-6.622414	98.076436	0.241565	1.051229	0.424371	-4.017757	-0.910377	-3.986258	8.260955	0.144181	30.615903	2.671517	0.000000	-6.587863	-0.431523	11.798362	0.559722	0.009769	29.215131	-4.241675	0.000000	0.139797	0.090018	-1.581701	0.259617	0.119725	-1.680558	0.229672	0.218871	-1.680558	0.159774	0.218871	-1.383989	0.129815	0.183566	-1.285132	0.079880	0.139439	-1.186276	0.998556	1.018307	-8.796948	0.000000	0.000000	27.651508	2.736813	1.279802	14.915290	-13.069480	76.025368	47.766515	14.825765	3.567691	7.388951	6.457564	-15.164590	49.406700	48.737246	73.184736	2.994107	-5.695384
0.018182	0.683439	-6.340902	98.109785	0.240604	1.051059	0.422248	-4.547053	-1.046571	-4.491256	8.277092	0.144463	30.212271	2.341063	0.000000	-7.153195	-0.233929	12.461686	0.555703	0.009699	28.783527	-5.368178	0.000000	0.118711	0.084217	-1.601891	0.220458	0.112009	-1.702009	0.195030	0.204766	-1.702009	0.135675	0.204766	-1.401655	0.110235	0.171736	-1.301536	0.067831	0.130453	-1.201418	0.847940	0.952685	-8.909237	0.000000	0.000000	27.706729	2.628479	1.211267	14.433739	-13.103397	75.558895	47.359654	16.686591	4.307709	5.172018	5.176336	-14.235618	46.640184	48.554531	74.244048	2.480579	-6.298275
0.036364	0.573271	-6.106641	98.210658	0.239682	1.050868	0.420555	-4.979694	-1.129341	-4.945028	8.274206	0.144412	29.919560	2.069765	0.000000	-7.598495	-0.098225	13.042629	0.564280	0.009849	28.484981	-6.232984	0.000000	0.102140	0.081878	-1.627709	0.189684	0.108898	-1.729441	0.167805	0.199079	-1.729441	0.116736	0.199079	-1.424245	0.094847	0.166966	-1.322514	0.058363	0.126829	-1.220782	0.729574	0.926222	-9.052829	0.000000	0.000000	27.749617	2.533626	1.138737	14.122207	-13.203104	75.577254	47.072129	17.735267	4.976239	3.383509	4.182084	-13.485388	44.629905	48.358306	75.427435	2.108311	-6.793112
0.054545	0.508646	-5.915404	98.368558	0.238800	1.050658	0.419247	-5.324275	-1.163625	-5.347205	8.254569	0.144069	29.726792	1.851162	0.000000	-7.935825	-0.018740	13.547499	0.583484	0.010184	28.303446	-6.865154	0.000000	0.089689	0.082729	-1.658147	0.166562	0.110030	-1.761781	0.147350	0.201148	-1.761781	0.102506	0.201148	-1.450879	0.083285	0.168701	-1.347245	0.051248	0.128147	-1.243610	0.640640	0.935848	-9.222117	0.000000	0.000000	27.781553	2.452563	1.065319	13.959660	-13.359357	76.009548	46.890898	18.075352	5.576575	1.983294	3.444087	-12.896032	43.289151	48.152910	76.701958	1.861100	-7.189708
0.072727	0.485344	-5.762970	98.572989	0.237961	1.050432	0.418282	-5.589392	-1.154363	-5.697420	8.220449	0.143474	29.622989	1.678796	0.000000	-8.177249	0.010195	13.982607	0.611346	0.010670	28.222876	-7.293750	0.000000	0.080964	0.086499	-1.692198	0.150359	0.115043	-1.797960	0.133016	0.210313	-1.797960	0.092534	0.210313	-1.480673	0.075184	0.176388	-1.374910	0.046263	0.133987	-1.269148	0.578321	0.978491	-9.411495	0.000000	0.000000	27.803917	2.385597	0.994120	13.925063	-13.562910	76.784880	46.802920	17.810403	6.112010	0.931241	2.931625	-12.449683	42.531213	47.942682	78.034682	1.722745	-7.497877
0.090909	0.499143	-5.645113	98.813455	0.237167	1.050193	0.417613	-5.783640	-1.106493	-5.995302	8.174118	0.142665	29.597170	1.546209	0.000000	-8.334827	-0.005750	14.354262	0.645897	0.011273	28.227225	-7.547832	0.000000	0.075571	0.092916	-1.728852	0.140343	0.123578	-1.836905	0.124156	0.225915	-1.836905	0.086370	0.225915	-1.512745	0.070175	0.189473	-1.404692	0.043181	0.143926	-1.296639	0.539798	1.051079	-9.615356	0.000000	0.000000	27.818090	2.333038	0.928245	13.997381	-13.804518	77.832353	46.795153	17.043977	6.585840	0.187220	2.613979	-12.128471	42.269381	47.731963	79.392667	1.677045	-7.727432
0.109091	0.545821	-5.557609	99.079462	0.236420	1.049944	0.417198	-5.915614	-1.024954	-6.240484	8.117847	0.141683	29.638357	1.446939	0.000000	-8.420625	-0.060905	14.668775	0.685167	0.011958	28.300447	-7.656464	0.000000	0.073115	0.101708	-1.767102	0.135782	0.135272	-1.877546	0.120121	0.247293	-1.877546	0.083563	0.247293	-1.546215	0.067895	0.207403	-1.435771	0.041778	0.157546	-1.325327	0.522254	1.150541	-9.828094	0.000000	0.000000	27.825453	2.295194	0.870802	14.155581	-14.074936	79.081072	46.854556	15.879630	7.001359	-0.288898	2.460427	-11.914531	42.416945	47.525093	80.742977	1.707798	-7.888188
0.127273	0.621158	-5.496235	99.360513	0.235722	1.049689	0.416993	-5.993910	-0.914684	-6.432597	8.053905	0.140567	29.735570	1.374529	0.000000	-8.446703	-0.149601	14.932456	0.727188	0.012692	28.426496	-7.648707	0.000000	0.073201	0.112605	-1.805941	0.135943	0.149764	-1.918812	0.120263	0.273787	-1.918812	0.083662	0.273787	-1.580198	0.067975	0.229623	-1.467327	0.041827	0.174424	-1.354456	0.522871	1.273805	-10.044101	0.000000	0.000000	27.827387	2.272373	0.824898	14.378626	-14.364919	80.460139	46.968086	14.420920	7.361861	-0.537246	2.440251	-11.789994	42.887196	47.326410	82.052674	1.798801	-7.989959
0.145455	0.720932	-5.456766	99.646114	0.235076	1.049430	0.416953	-6.027122	-0.780623	-6.571273	7.984562	0.139357	29.877831	1.322520	0.000000	-8.425124	-0.266167	15.151614	0.769989	0.013439	28.589326	-7.553622	0.000000	0.075436	0.125334	-1.844359	0.140092	0.166694	-1.959632	0.123934	0.304736	-1.959632	0.086216	0.304736	-1.613814	0.070050	0.255581	-1.498542	0.043104	0.194142	-1.383269	0.538832	1.417800	-10.257772	0.000000	0.000000	27.825272	2.264884	0.793638	14.645484	-14.665221	81.898659	47.122703	12.771405	7.670641	-0.597952	2.522729	-11.736992	43.593423	47.140255	83.288820	1.933854	-8.042558
0.163636	0.840921	-5.434979	99.925767	0.234484	1.049170	0.417034	-6.023846	-0.627709	-6.656142	7.912091	0.138092	30.054161	1.284451	0.000000	-8.367952	-0.404933	15.332559	0.811602	0.014165	28.772890	-7.400272	0.000000	0.079424	0.139624	-1.881349	0.147499	0.185700	-1.998933	0.130486	0.339482	-1.998933	0.090774	0.339482	-1.646180	0.073753	0.284721	-1.528596	0.045383	0.216277	-1.411012	0.567320	1.579454	-10.463499	0.000000	0.000000	27.820490	2.273036	0.780131	14.935118	-14.966597	83.325734	47.305364	11.034641	7.930994	-0.511148	2.677141	-11.737658	44.448916	46.970969	84.418478	2.096753	-8.055799
0.181818	0.976903	-5.426649	100.188978	0.233948	1.048913	0.417193	-5.992676	-0.460880	-6.686836	7.838760	0.136812	30.253580	1.253864	0.000000	-8.287248	-0.560231	15.481601	0.850056	0.014836	28.961142	-7.217718	0.000000	0.084772	0.155204	-1.915903	0.157430	0.206421	-2.035647	0.139271	0.377362	-2.035647	0.096886	0.377362	-1.676415	0.078719	0.316491	-1.556671	0.048439	0.240410	-1.436927	0.605516	1.755694	-10.655677	0.000000	0.000000	27.814421	2.297138	0.787482	15.226495	-15.259803	84.670467	47.503029	9.314186	8.146213	-0.316965	2.872768	-11.774123	45.366966	46.822889	85.408711	2.271299	-8.039496
0.200000	1.118002	-5.442525	100.397911	0.233503	1.048649	0.417309	-5.921882	-0.297183	-6.658805	7.774240	0.135686	30.469910	1.241842	0.000000	-8.180256	-0.711778	15.600597	0.887512	0.015490	29.070728	-7.076407	0.000000	0.093952	0.171289	-1.946819	0.174478	0.227814	-2.068495	0.154354	0.416472	-2.068495	0.107378	0.416472	-1.703467	0.087244	0.349292	-1.581791	0.053684	0.265327	-1.460114	0.671090	1.937655	-10.827624	0.000000	0.000000	27.796341	2.355356	0.865624	15.404367	-15.486086	85.474076	47.621596	8.120748	8.285808	-0.219598	2.975877	-11.767232	45.937880	46.711267	85.859717	2.427678	-7.928087
0.218182	1.270787	-5.438951	100.560122	0.233125	1.048395	0.417373	-5.882453	-0.119528	-6.568209	7.700225	0.134394	30.626569	1.185287	0.000000	-8.122046	-0.877228	15.734306	0.898671	0.015685	29.122802	-7.045293	0.000000	0.099640	0.188746	-1.969549	0.185041	0.251033	-2.092646	0.163698	0.458918	-2.092646	0.113878	0.458918	-1.723355	0.092525	0.384892	-1.600258	0.056934	0.292368	-1.477162	0.711716	2.135138	-10.954039	0.000000	0.000000	27.808413	2.427617	0.957619	15.536426	-15.690354	86.049685	47.741571	7.179619	8.409962	-0.040908	3.044698	-11.750441	46.365633	46.629244	86.279838	2.480239	-7.908206
0.236364	1.430229	-5.432272	100.700345	0.232781	1.048129	0.417340	-5.854623	0.062878	-6.471904	7.636266	0.133278	30.765389	1.130982	0.000000	-8.087332	-1.051728	15.984063	0.900484	0.015716	29.110224	-7.216208	0.000000	0.105390	0.206810	-1.996825	0.195721	0.275057	-2.121627	0.173146	0.502838	-2.121627	0.120451	0.502838	-1.747222	0.097866	0.421727	-1.622420	0.060220	0.320349	-1.497619	0.752794	2.339478	-11.105742	0.000000	0.000000	27.824327	2.529392	1.091121	15.644099	-15.854808	86.455467	47.850923	6.584247	8.508088	0.099873	2.969742	-11.691301	46.340749	46.640701	86.804770	2.536265	-7.810235
0.254545	1.583989	-5.417679	100.787930	0.232472	1.047893	0.417230	-5.837700	0.235860	-6.306547	7.586504	0.132409	30.869785	1.007858	0.000000	-8.081603	-1.215427	16.204489	0.893341	0.015592	29.070107	-7.432531	0.000000	0.109729	0.224824	-2.013417	0.203778	0.299016	-2.139256	0.180274	0.546638	-2.139256	0.125410	0.546638	-1.761740	0.101895	0.458461	-1.635901	0.062699	0.348253	-1.510063	0.783786	2.543256	-11.198022	0.000000	0.000000	27.840855	2.612792	1.193174	15.659400	-15.994607	86.477544	47.966731	6.389809	8.541305	0.253279	2.867505	-11.623227	46.202090	46.695373	86.914873	2.508853	-7.776180
0.272727	1.732389	-5.398827	100.803659	0.232227	1.047691	0.416997	-5.831431	0.394627	-6.076084	7.542201	0.131636	30.969119	0.888216	0.000000	-8.103325	-1.366105	16.416413	0.876669	0.015301	29.008210	-7.730070	0.000000	0.113760	0.242874	-2.023815	0.211264	0.323023	-2.150304	0.186897	0.590525	-2.150304	0.130017	0.590525	-1.770838	0.105638	0.495269	-1.644350	0.065003	0.376212	-1.517861	0.812578	2.747443	-11.255852	0.000000	0.000000	27.859278	2.702239	1.319443	15.610077	-16.087599	86.214552	48.039616	6.676829	8.572873	0.247102	2.674785	-11.518109	45.749741	46.794066	86.836017	2.471671	-7.776589
